<?xml version="1.0" standalone="no"?>
<!DOCTYPE svg PUBLIC "-//W3C//DTD SVG 20010904//EN"
 "http://www.w3.org/TR/2001/REC-SVG-20010904/DTD/svg10.dtd">
<svg version="1.0" xmlns="http://www.w3.org/2000/svg"
 width="1146.000000pt" height="738.000000pt" viewBox="0 0 1146.000000 738.000000"
 preserveAspectRatio="xMidYMid meet">

<g transform="translate(0.000000,738.000000) scale(0.100000,-0.100000)"
fill="#000000" stroke="none">
<path d="M2750 5050 c-233 -32 -516 -135 -699 -253 l-54 -34 120 -97 c66 -53
124 -96 128 -96 5 0 49 20 99 44 112 54 217 90 344 118 143 32 432 32 582 -1
118 -25 265 -77 360 -127 35 -19 68 -34 73 -34 12 0 247 183 247 192 0 3 -26
22 -57 41 -169 102 -389 189 -581 228 -110 23 -449 34 -562 19z"/>
<path d="M5858 4668 c-75 -10 -126 -37 -177 -94 -51 -59 -75 -133 -75 -234 2
-245 159 -375 399 -330 l67 13 -7 71 c-4 39 -8 72 -9 74 -2 1 -20 -5 -42 -14
-50 -21 -121 -14 -164 16 -47 33 -70 91 -70 175 0 154 92 228 225 180 22 -8
43 -15 48 -15 4 0 7 31 7 69 0 62 -2 70 -21 76 -44 14 -126 20 -181 13z"/>
<path d="M7429 4669 c-149 -22 -231 -139 -231 -329 0 -154 46 -251 144 -305
46 -26 63 -30 128 -30 122 0 207 58 250 171 31 78 33 222 6 306 -43 134 -160
207 -297 187z m96 -145 c34 -37 45 -83 45 -192 0 -138 -32 -202 -100 -202 -70
0 -103 68 -102 214 0 138 35 206 105 206 17 0 37 -10 52 -26z"/>
<path d="M8405 4670 c-96 -14 -178 -87 -211 -187 -27 -85 -25 -228 6 -307 43
-113 128 -171 250 -171 65 0 82 4 128 30 99 54 145 152 145 305 -1 110 -25
188 -76 246 -55 63 -153 97 -242 84z m97 -147 c35 -37 48 -91 48 -193 -1 -136
-33 -200 -101 -200 -45 0 -84 39 -96 98 -14 67 -9 194 11 245 30 80 90 101
138 50z"/>
<path d="M9049 4669 c-169 -17 -268 -128 -277 -310 -8 -161 44 -261 165 -321
62 -30 75 -33 163 -33 52 0 116 6 143 14 l47 14 0 178 0 179 -120 0 -120 0 0
-59 0 -60 43 -3 42 -3 3 -57 c3 -50 0 -58 -19 -68 -12 -7 -36 -9 -55 -6 -97
19 -147 145 -113 283 26 102 127 150 248 119 34 -9 65 -16 67 -16 9 0 3 129
-6 135 -19 12 -146 20 -211 14z"/>
<path d="M1848 4573 c-93 -165 -149 -308 -194 -498 -28 -116 -29 -129 -29
-380 0 -251 1 -264 28 -379 48 -199 112 -363 204 -517 26 -44 51 -78 56 -76 4
1 50 56 102 122 l93 120 -43 85 c-56 111 -100 237 -127 363 -31 146 -31 418 0
564 27 126 71 252 127 363 l43 85 -95 120 c-52 66 -98 121 -102 123 -4 1 -32
-42 -63 -95z"/>
<path d="M3942 4548 l-94 -121 50 -106 c103 -218 137 -372 137 -626 0 -254
-34 -408 -137 -626 l-50 -106 92 -119 c50 -65 95 -120 99 -122 24 -8 159 259
211 417 71 213 95 388 87 621 -8 241 -58 454 -154 660 -44 97 -132 250 -142
250 -4 -1 -48 -55 -99 -122z"/>
<path d="M4660 4595 l0 -65 70 0 70 0 0 -260 0 -260 80 0 80 0 0 260 0 260 70
0 70 0 0 65 0 65 -220 0 -220 0 0 -65z"/>
<path d="M5170 4335 l0 -325 195 0 195 0 0 65 0 65 -115 0 -115 0 0 70 0 70
105 0 105 0 0 65 0 65 -105 0 -106 0 3 63 3 62 108 3 107 3 0 59 0 60 -190 0
-190 0 0 -325z"/>
<path d="M6110 4335 l0 -325 85 0 85 0 0 135 0 135 65 0 65 0 0 -135 0 -135
85 0 85 0 0 325 0 325 -85 0 -85 0 0 -125 0 -125 -65 0 -65 0 0 125 0 125 -85
0 -85 0 0 -325z"/>
<path d="M6650 4335 l0 -325 70 0 70 0 0 227 c0 124 2 224 5 221 3 -3 40 -104
83 -224 l77 -219 98 -3 97 -3 0 326 0 325 -70 0 -70 0 -2 -222 -3 -223 -80
220 -80 220 -98 3 -97 3 0 -326z"/>
<path d="M7790 4335 l0 -325 185 0 185 0 0 65 0 65 -100 0 -100 0 0 260 0 260
-85 0 -85 0 0 -325z"/>
<path d="M9310 4654 c0 -4 41 -96 90 -205 l90 -198 0 -121 0 -120 85 0 85 0 0
120 0 121 90 198 c50 109 90 201 90 205 0 3 -40 6 -90 6 l-89 0 -39 -122 -40
-123 -15 36 c-8 20 -28 75 -43 123 l-28 86 -93 0 c-51 0 -93 -3 -93 -6z"/>
<path d="M2485 4290 c-215 -34 -350 -201 -315 -389 22 -119 88 -186 281 -286
73 -37 149 -83 170 -102 63 -57 73 -129 28 -202 -63 -104 -289 -72 -434 61
l-56 51 3 -134 3 -134 55 -33 c94 -56 178 -77 310 -77 108 0 119 2 181 31 36
17 82 48 101 68 94 97 123 268 68 394 -43 97 -138 181 -290 257 -162 81 -210
128 -195 193 16 77 123 116 253 92 67 -12 127 -35 180 -70 l32 -22 0 114 0
114 -38 22 c-78 43 -238 68 -337 52z"/>
<path d="M3345 4294 c-59 -9 -181 -37 -242 -56 l-63 -19 0 -594 0 -595 115 0
115 0 0 508 0 509 42 13 c120 35 291 21 407 -35 l71 -34 0 113 0 113 -57 26
c-32 14 -76 30 -98 37 -43 12 -240 21 -290 14z"/>
<path d="M3473 3794 c-95 -47 -97 -200 -4 -249 96 -49 211 16 211 120 0 110
-109 177 -207 129z"/>
<path d="M6491 3753 c1 -10 1 -46 0 -80 l-1 -63 -185 0 -185 0 0 -60 0 -60
185 0 185 0 0 -90 0 -90 -145 0 -145 0 0 -60 0 -60 144 0 c85 0 146 -4 148
-10 2 -5 2 -46 0 -90 l-4 -80 -199 0 -199 0 0 -60 0 -60 200 0 200 0 0 -85 0
-85 75 0 75 0 0 85 0 85 205 0 205 0 0 60 0 60 -205 0 -205 0 0 90 0 90 150 0
150 0 0 60 0 60 -150 0 -150 0 0 90 0 90 190 0 190 0 0 60 0 60 -190 0 -190 0
0 80 0 80 -76 0 c-66 0 -75 -2 -73 -17z"/>
<path d="M8190 3420 l0 -340 -170 0 -170 0 0 -70 0 -70 170 0 170 0 0 -110 0
-110 75 0 75 0 0 110 0 110 55 0 55 0 0 70 0 70 -55 0 -55 0 0 340 0 340 -75
0 -75 0 0 -340z"/>
<path d="M8950 3670 l0 -89 -57 -3 -58 -3 -3 -67 -3 -68 61 0 60 0 0 -94 0
-94 -27 -6 c-16 -3 -45 -8 -65 -12 l-38 -6 0 -75 0 -75 28 5 c15 3 44 8 65 12
l37 7 0 -109 c0 -71 -4 -113 -12 -121 -7 -7 -34 -12 -60 -12 l-48 0 0 -71 0
-72 73 7 c178 17 181 21 186 248 3 182 -2 168 64 182 26 6 27 8 27 77 0 62 -2
70 -17 65 -10 -3 -30 -8 -45 -12 l-28 -6 0 81 0 81 45 0 46 0 -3 68 -3 67 -42
3 -43 3 0 90 0 89 -70 0 -70 0 0 -90z"/>
<path d="M9440 3685 l0 -74 -117 -3 -118 -3 0 -60 0 -60 118 -3 117 -3 0 -54
0 -54 -117 -3 -118 -3 0 -65 0 -65 70 -5 70 -5 -58 -33 -58 -34 27 -36 c15
-21 51 -65 80 -98 l53 -61 -61 -34 c-35 -19 -84 -44 -110 -56 l-48 -22 0 -65
c0 -42 4 -66 11 -66 17 0 164 68 252 116 l78 43 38 -23 c51 -33 197 -105 243
-122 l38 -13 0 69 0 70 -89 45 c-49 24 -92 49 -96 55 -4 6 11 30 32 53 46 50
92 116 122 174 15 31 21 61 21 113 l0 70 -115 0 -115 0 0 55 0 55 125 0 125 0
0 65 0 65 -125 0 -125 0 0 75 0 75 -75 0 -75 0 0 -75z m189 -495 c-13 -23 -44
-64 -70 -93 l-47 -52 -51 49 c-27 27 -64 69 -81 93 l-31 43 151 0 151 0 -22
-40z"/>
<path d="M4720 3354 c0 -408 -5 -467 -40 -499 -18 -16 -18 -19 7 -70 l27 -54
27 20 c15 11 40 45 56 77 l28 57 3 433 3 432 -56 0 -55 0 0 -396z"/>
<path d="M5057 3743 c-4 -3 -7 -233 -7 -510 l0 -503 60 0 60 0 0 510 0 510
-53 0 c-30 0 -57 -3 -60 -7z"/>
<path d="M5220 3685 l0 -54 84 -3 84 -3 -15 -37 c-14 -36 -16 -37 -71 -40
l-57 -3 -3 -297 -2 -298 65 0 65 0 0 245 0 245 110 0 110 0 0 -245 0 -245 65
0 65 0 0 300 0 300 -120 0 c-77 0 -120 4 -120 10 0 6 7 24 15 40 l16 30 114 0
115 0 0 55 0 55 -260 0 -260 0 0 -55z"/>
<path d="M7770 3727 c-3 -3 -81 -13 -175 -22 -93 -9 -171 -18 -173 -20 -2 -2
2 -30 8 -62 l12 -59 64 4 64 4 0 -56 0 -56 -75 0 -75 0 0 -70 0 -70 70 0 c50
0 70 -4 70 -13 0 -25 -68 -153 -109 -205 -41 -51 -42 -54 -39 -120 l3 -67 48
50 c27 28 60 68 75 89 l27 40 3 -187 2 -187 70 0 70 0 0 215 0 216 28 -15 c15
-7 44 -21 65 -29 l37 -16 0 67 0 67 -44 23 c-24 13 -54 35 -67 48 l-22 24 66
0 67 0 0 70 0 70 -65 0 -65 0 0 64 0 64 71 10 c39 6 73 12 75 15 2 2 -4 28
-14 58 -15 44 -23 55 -43 57 -14 2 -27 1 -29 -1z"/>
<path d="M4885 3667 c-3 -6 -4 -185 -3 -397 l3 -385 58 -3 57 -3 0 401 0 400
-55 0 c-35 0 -57 -5 -60 -13z"/>
<path d="M7962 3637 l-43 -44 83 -76 83 -76 50 49 c27 27 47 51 45 53 -3 2
-42 33 -86 70 -45 37 -84 67 -86 67 -2 0 -23 -20 -46 -43z"/>
<path d="M7922 3367 l-42 -43 73 -64 c111 -100 97 -96 151 -41 l47 48 -87 71
c-47 40 -89 72 -93 72 -4 0 -26 -19 -49 -43z"/>
<path d="M5428 3153 c-3 -192 -5 -222 -21 -247 -22 -33 -72 -56 -122 -56 l-35
0 0 -61 0 -62 43 7 c72 12 113 25 151 51 l36 24 36 -24 c38 -26 79 -39 152
-51 l42 -7 0 62 0 61 -35 0 c-20 0 -50 6 -68 13 -61 26 -62 29 -67 276 l-5
226 -52 3 -51 3 -4 -218z"/>
<path d="M2189 2778 c-30 -23 -85 -67 -123 -97 l-68 -54 53 -35 c150 -96 383
-189 590 -234 141 -30 503 -33 644 -5 132 26 257 64 371 113 116 49 289 146
289 162 0 8 -230 192 -240 192 -1 0 -43 -20 -93 -45 -208 -104 -373 -140 -637
-140 -163 0 -205 3 -294 23 -127 29 -251 72 -353 123 -43 22 -79 39 -81 39 -3
0 -29 -19 -58 -42z"/>
</g>
</svg>
