<?xml version="1.0" standalone="no"?>
<!DOCTYPE svg PUBLIC "-//W3C//DTD SVG 20010904//EN"
 "http://www.w3.org/TR/2001/REC-SVG-20010904/DTD/svg10.dtd">
<svg version="1.0" xmlns="http://www.w3.org/2000/svg"
 width="301.000000pt" height="180.000000pt" viewBox="0 0 301.000000 180.000000"
 preserveAspectRatio="xMidYMid meet">

<g transform="translate(0.000000,180.000000) scale(0.100000,-0.100000)"
fill="#000000" stroke="none">
<path d="M837 1690 c-402 -167 -694 -451 -797 -775 -31 -98 -39 -276 -16 -365
51 -198 175 -346 376 -449 118 -60 173 -77 69 -21 -142 76 -259 193 -325 322
-66 129 -83 319 -44 474 26 100 104 258 172 349 149 198 395 382 658 491 30
13 48 23 40 23 -8 0 -68 -22 -133 -49z"/>
<path d="M406 1290 c-186 -196 -277 -392 -278 -599 -1 -335 253 -584 672 -657
75 -13 134 -15 280 -11 201 6 303 24 491 87 96 32 293 120 285 127 -2 2 -26
-7 -53 -20 -75 -39 -238 -92 -354 -118 -88 -19 -133 -23 -294 -22 -173 0 -199
2 -289 26 -55 15 -142 47 -194 73 -78 38 -109 60 -176 127 -93 93 -128 152
-156 263 -24 93 -25 150 -4 252 29 145 98 273 224 422 35 41 48 60 29 42 -20
-18 -39 -29 -43 -25 -7 8 -29 10 -111 12 l-39 1 54 55 c30 30 52 55 48 55 -3
0 -44 -41 -92 -90z"/>
<path d="M659 1343 l-24 -28 28 24 c25 23 32 31 24 31 -2 0 -14 -12 -28 -27z"/>
<path d="M857 1220 c-21 -4 -51 -19 -65 -34 -27 -26 -27 -26 -27 -186 l0 -160
28 -27 27 -28 241 -5 c223 -5 242 -6 255 -24 19 -26 20 -234 1 -259 -11 -16
-36 -17 -280 -15 l-267 3 0 -32 0 -33 290 0 c329 0 350 4 375 64 21 49 21 293
0 342 -24 58 -52 64 -303 64 -268 0 -252 -9 -252 138 0 153 -18 145 297 141
l254 -4 -3 30 -3 30 -265 1 c-146 1 -282 -2 -303 -6z"/>
<path d="M1607 1220 c-21 -4 -51 -19 -65 -34 -27 -26 -27 -26 -27 -186 l0
-160 28 -27 27 -28 241 -5 c223 -5 242 -6 255 -24 19 -26 20 -234 1 -259 -11
-16 -36 -17 -280 -15 l-267 3 0 -32 0 -33 290 0 c329 0 350 4 375 64 21 49 21
293 0 342 -24 58 -52 64 -304 64 -186 0 -222 2 -235 16 -13 12 -16 39 -16 124
0 152 -18 143 300 139 l251 -4 -3 30 -3 30 -265 1 c-146 1 -282 -2 -303 -6z"/>
<path d="M2268 826 l-3 -406 70 0 70 0 -3 149 -3 149 258 4 c280 4 302 8 329
59 18 36 20 345 2 384 -26 57 -43 60 -395 63 l-323 3 -2 -405z m602 324 c5 -8
10 -87 10 -175 0 -88 -5 -167 -10 -175 -8 -12 -48 -16 -240 -18 l-230 -3 0
196 0 196 230 -3 c192 -2 232 -6 240 -18z"/>
</g>
</svg>
