<svg width="136px" height="44px" viewBox="0 0 136 44" version="1.1" xmlns="http://www.w3.org/2000/svg" xmlns:xlink="http://www.w3.org/1999/xlink">
    <title>logo_slice</title>
    <defs>
        <polygon id="path-1" points="0 43.6494926 135.859275 43.6494926 135.859275 -0.000231780755 0 -0.000231780755"></polygon>
    </defs>
    <g id="页面-1" stroke="none" stroke-width="1" fill="none" fill-rule="evenodd">
        <g id="logo">
            <path d="M30.9954579,24.5395557 C29.6558207,24.5395557 28.6543971,23.539808 28.6543971,22.2681043 C28.6543971,20.9956279 29.6558207,19.9425707 30.9954579,19.9425707 C32.2760049,19.9425707 33.279761,20.9956279 33.279761,22.2681043 C33.279761,23.539808 32.2231347,24.5395557 30.9954579,24.5395557" id="Fill-1" fill="#D41324"></path>
            <path d="M21.9083946,4.82080792 C26.2002097,4.82080792 30.2152339,5.98589252 33.6152534,7.97688921 L37.6831478,4.82080792 C33.1666343,1.7744362 27.7591027,0.000540821762 21.9083946,0.000540821762 C16.1128891,0.000540821762 10.6493773,1.7744362 6.18806659,4.82080792 L10.2030908,7.97688921 C13.6575355,5.98589252 17.6717821,4.82080792 21.9083946,4.82080792" id="Fill-3" fill="#FEFEFE"></path>
            <path d="M10.203324,35.729467 L6.18829984,38.8330113 C10.6488331,41.8778378 16.1131224,43.6494154 21.9086278,43.6494154 C27.759336,43.6494154 33.1668676,41.8778378 37.683381,38.8330113 L33.6147091,35.729467 C30.2146896,37.7243267 26.1996655,38.8330113 21.9086278,38.8330113 C17.6712379,38.8330113 13.6569912,37.7243267 10.203324,35.729467" id="Fill-5" fill="#FEFEFE"></path>
            <path d="M4.79501492,21.8248622 C4.79501492,17.6172689 5.96593406,13.6306399 7.97344614,10.1956491 L4.79501492,6.20515711 C1.78685681,10.6406682 0.000155500549,16.0102557 0.000155500549,21.8248622 C0.000155500549,27.6433318 1.78685681,33.0167823 4.79501492,37.5009673 L7.97344614,33.4579383 C5.96593406,30.0260379 4.79501492,26.0904007 4.79501492,21.8248622" id="Fill-7" fill="#FEFEFE"></path>
            <path d="M35.9011892,33.4576293 L39.0228627,37.5006582 C42.0877786,33.0172458 43.8705923,27.6437953 43.8705923,21.8245532 C43.8705923,16.0099466 42.0877786,10.6411317 39.0228627,6.20562068 L35.9011892,10.1961127 C37.9087013,13.6303309 39.0228627,17.6169599 39.0228627,21.8245532 C39.0228627,26.0908643 37.9087013,30.0265015 35.9011892,33.4576293" id="Fill-9" fill="#FEFEFE"></path>
            <path d="M14.8296208,32.2957123 C12.599743,32.2957123 10.6489886,31.6861289 8.92059999,30.4113348 L8.86539729,30.4113348 L8.86539729,30.3008526 L8.86539729,26.5336428 L8.86539729,26.1465689 L9.14452078,26.4216154 C9.58925235,27.0319714 11.4840265,28.9148037 14.5504974,28.9148037 C16.8915581,28.9148037 17.1147014,27.1988535 17.1147014,26.4216154 C17.1147014,24.9289473 15.5534759,24.097627 13.8243098,23.2639889 L13.7123494,23.2122245 C11.4272688,22.1050851 8.86539729,20.8843732 8.86539729,17.6170371 C8.86539729,14.6262928 11.3720661,12.4073783 14.8296208,12.2420414 L15.2735749,12.2420414 C18.284843,12.2420414 19.7900884,13.3499534 20.0661018,13.5732355 L20.125192,13.6304081 L20.125192,13.7385725 L20.125192,16.9518263 L20.125192,17.2832728 L19.8476236,17.0623085 C18.7871098,16.1228238 17.0579437,15.5650048 15.442293,15.5650048 C14.7161054,15.5650048 14.0482306,15.6785774 13.6027215,15.8995417 C12.8788665,16.2317608 12.5437628,16.7849442 12.5437628,17.6170371 C12.5437628,18.6129218 13.7706621,19.2232777 15.2735749,19.9997433 L15.5534759,20.110998 C17.5065628,21.1609649 20.8490471,22.8228329 20.8490471,26.5908153 C20.8490471,28.1978286 20.1803947,29.8573788 19.1222135,30.7999539 C18.0616998,31.7425289 16.5012517,32.2957123 14.8296208,32.2957123" id="Fill-11" fill="#FEFEFE"></path>
            <path d="M26.7002217,32.4058854 L26.5346137,32.4058854 L23.1345942,32.4058854 L22.9682086,32.4058854 L22.9682086,32.2405485 L22.9682086,13.6300991 L22.9682086,13.5172991 L23.0809465,13.4601265 C23.1897969,13.4029539 26.3138029,12.189968 29.600307,12.189968 C33.1667121,12.189968 34.9534134,13.5172991 34.9534134,13.5172991 L35.0086161,13.5729265 L35.0086161,13.6841813 L35.0086161,16.9515173 L35.0086161,17.2273364 L34.7854728,17.0627721 C34.4519241,16.8418077 32.8922536,15.7346683 29.9921684,15.679041 L29.8250053,15.679041 C28.318205,15.679041 27.2592462,16.0097148 26.7569794,16.176597 L26.7002217,16.2314518 L26.7002217,16.2870791 L26.7002217,32.2405485 L26.7002217,32.4058854 Z" id="Fill-13" fill="#FEFEFE"></path>
            <polygon id="Fill-15" fill="#FEFEFE" points="80.4511635 37.3689295 78.4529814 37.3689295 78.4529814 35.0673466 72.8588492 35.0673466 72.8588492 33.3985252 78.4529814 33.3985252 78.4529814 31.0165916 74.377312 31.0165916 74.377312 29.2705099 78.4529814 29.2705099 78.4529814 26.8901216 73.2584856 26.8901216 73.2584856 25.2220727 78.4529814 25.2220727 78.4529814 23.0781007 80.4511635 23.0781007 80.4511635 25.2220727 85.6433268 25.2220727 85.6433268 26.8901216 80.4511635 26.8901216 80.4511635 29.2705099 84.5245003 29.2705099 84.5245003 31.0165916 80.4511635 31.0165916 80.4511635 33.3985252 86.0421857 33.3985252 86.0421857 35.0673466 80.4511635 35.0673466"></polygon>
            <mask id="mask-2" fill="white">
                <use xlink:href="#path-1"></use>
            </mask>
            <g id="Clip-18"></g>
            <polygon id="Fill-17" fill="#FEFEFE" mask="url(#mask-2)" points="53.0700048 37.2083054 54.669328 37.2083054 54.669328 23.3995806 53.0700048 23.3995806"></polygon>
            <path d="M50.0351784,23.3995034 L48.517493,23.3995034 L48.517493,33.239369 C48.517493,34.6733193 48.2772446,35.3864314 47.7182202,35.7796861 L48.4381877,37.2082282 C49.236683,36.7299872 49.9558731,35.7796861 50.0351784,33.7964155 L50.0351784,33.7168374 L50.0351784,33.239369 L50.0351784,23.3995034 Z" id="Fill-19" fill="#FEFEFE" mask="url(#mask-2)"></path>
            <path d="M59.6993042,33.7164511 L59.6993042,28.5577841 L58.1831739,28.5577841 L58.1831739,33.7164511 C58.1023136,34.5918097 58.1023136,35.6232341 55.7869104,35.6232341 L55.7869104,37.2086145 L55.8669932,37.2086145 C57.4632063,37.1321268 58.4203122,36.6538859 58.9031414,36.0999299 C59.4598334,36.6538859 60.4184943,37.1321268 61.9361796,37.2086145 L62.0955677,37.2086145 L62.0955677,35.6232341 C59.7801645,35.6232341 59.6993042,34.5918097 59.6993042,33.7164511" id="Fill-20" fill="#FEFEFE" mask="url(#mask-2)"></path>
            <polygon id="Fill-21" fill="#FEFEFE" mask="url(#mask-2)" points="55.3865742 24.9854246 55.3865742 23.4773045 62.4945043 23.4773045 62.4945043 24.9854246 59.3020781 24.9854246 58.8239139 26.0956544 59.6216317 26.0956544 62.1780607 26.0956544 62.1780607 34.2713342 60.4994323 34.2713342 60.4994323 27.6053197 57.3839788 27.6053197 57.3839788 34.2713342 55.7061279 34.2713342 55.7061279 26.0956544 57.2230357 26.0956544 57.7050874 24.9854246"></polygon>
            <polygon id="Fill-22" fill="#FEFEFE" mask="url(#mask-2)" points="50.7522691 35.1454567 52.3523698 35.1454567 52.3523698 24.3498817 50.7522691 24.3498817"></polygon>
            <path d="M135.174761,26.9705495 L131.635569,26.9705495 L131.635569,28.5698367 L134.811667,28.5698367 L134.811667,30.3120554 C134.227763,31.7104659 133.367067,32.9512656 132.230358,34.0367721 C132.230358,34.0367721 133.285429,34.7259335 134.900303,35.3988703 L134.900303,37.3450561 C132.500152,36.5376864 130.577387,35.1825416 130.577387,35.1825416 C130.577387,35.1825416 127.965756,36.7138398 125.920923,37.430815 L125.920923,35.5572539 C127.580114,34.8735006 128.917419,34.0081858 128.917419,34.0081858 C128.105706,33.2348107 127.368634,32.3640877 126.706979,31.3944715 L128.345177,30.4287183 C128.934524,31.3504331 129.664599,32.167074 130.534625,32.8778683 C131.41398,32.1284439 132.075635,31.292488 132.520367,30.3700006 L126.329112,30.3700006 L126.329112,28.5698367 L129.547974,28.5698367 L129.547974,26.9705495 L126.358657,26.9705495 L126.358657,25.241465 L129.547974,25.241465 L129.547974,23.1817067 L131.635569,23.1817067 L131.635569,25.241465 L135.174761,25.241465 L135.174761,26.9705495 Z M121.239579,25.7166156 L122.863783,25.7166156 L122.863783,23.1817067 L124.733677,23.1817067 L124.733677,25.7166156 L125.966019,25.7166156 L125.966019,27.5894041 L124.733677,27.5894041 L124.733677,29.7580994 L126.039881,29.4776446 L126.039881,31.3651126 L124.733677,31.6672002 L124.733677,35.4421361 C124.733677,36.0710345 124.576621,36.5438673 124.263288,36.8583165 C123.949176,37.1719931 122.611872,37.329604 121.228694,37.329604 L121.225584,35.4483169 L122.206015,35.4483169 C122.467256,35.4483169 122.632864,35.3602402 122.725387,35.2559389 C122.817132,35.1493197 122.863783,34.9669855 122.863783,34.7081637 L122.863783,32.1207179 L121.098851,32.5178356 L121.095741,30.456532 L122.863783,30.1328116 L122.863783,27.5894041 L121.239579,27.5894041 L121.239579,25.7166156 Z" id="Fill-23" fill="#FEFEFE" mask="url(#mask-2)"></path>
            <path d="M104.620536,24.2324462 L107.071225,26.2504839 L105.722257,27.5754973 L103.402967,25.4570212 L104.620536,24.2324462 Z M104.128377,27.8914917 L106.608611,29.9242089 L105.245648,31.2353154 L102.895257,29.1461982 L104.128377,27.8914917 Z M107.188628,31.9909206 L107.188628,23.210293 L109.232682,23.210293 L109.232682,31.8039508 L109.232682,33.6489256 L109.232682,37.3728698 L107.188628,37.3728698 L107.188628,33.828942 L107.188628,31.9909206 Z M102.356448,32.3038247 C102.356448,32.3038247 100.925843,31.8255837 100.507547,31.3836551 L100.507547,37.3728698 L98.6221023,37.3728698 L98.6221023,32.1493042 C98.0918455,33.2888929 96.4077745,34.7854239 96.4077745,34.7854239 L96.4186596,32.8485094 C98.2885537,30.7802525 98.5567921,29.2033708 98.5567921,29.2033708 L96.5485025,29.2033708 L96.5485025,27.3444891 L98.6221023,27.3444891 L98.6221023,25.731295 L96.8680562,25.8904512 L96.5345075,24.1760462 C98.536577,24.0215257 100.381591,23.8252846 102.074215,23.5842326 L102.625464,25.2708239 C101.972362,25.361991 101.266389,25.4500677 100.507547,25.5358266 L100.507547,27.3444891 L102.392213,27.3444891 L102.392213,29.2033708 L100.507547,29.2033708 C100.507547,29.2033708 100.977936,29.9180281 102.356448,30.456532 L102.356448,32.3038247 Z" id="Fill-24" fill="#FEFEFE" mask="url(#mask-2)"></path>
            <polygon id="Fill-25" fill="#FEFEFE" mask="url(#mask-2)" points="102.496632 34.3581747 110.730386 34.3581747 110.730386 32.4768876 102.496632 32.4768876"></polygon>
            <polygon id="Fill-26" fill="#FEFEFE" mask="url(#mask-2)" points="49.997936 9.10334368 47.7175204 9.10334368 47.7175204 6.317339 55.1372291 6.317339 55.1372291 9.10334368 52.8568136 9.10334368 52.8568136 20.0117186 49.997936 20.0117186"></polygon>
            <polygon id="Fill-27" fill="#FEFEFE" mask="url(#mask-2)" points="56.3356718 6.3169527 62.8425923 6.3169527 62.8425923 9.02492452 59.1339042 9.02492452 59.1339042 11.6533183 62.6606567 11.6533183 62.6606567 14.3605175 59.1339042 14.3605175 59.1339042 17.3049057 63.0408555 17.3049057 63.0408555 20.0121049 56.3356718 20.0121049"></polygon>
            <path d="M71.6283733,19.7175888 C70.7319127,20.0706682 69.8183469,20.2475942 69.0136316,20.2475942 C65.9269457,20.2475942 63.7227254,17.8733866 63.7227254,13.0662538 C63.7227254,9.02477 65.5172017,6.08192701 68.9980815,6.08192701 C70.3820364,6.08192701 71.3095972,6.57252961 71.5669506,6.71005286 L71.4161151,9.7309287 C71.0810114,9.47596987 70.2444184,8.94673715 69.3471803,8.94673715 C67.5239363,8.94673715 66.6717933,10.4764901 66.6717933,13.1450592 C66.6717933,15.4991791 67.6755494,17.3047512 69.4692482,17.3047512 C70.4877768,17.3047512 71.2326244,16.7739732 71.5063054,16.5391021 L71.6283733,19.7175888 Z" id="Fill-28" fill="#FEFEFE" mask="url(#mask-2)"></path>
            <polygon id="Fill-29" fill="#FEFEFE" mask="url(#mask-2)" points="77.3882691 14.4398638 75.1692763 14.4398638 75.1692763 20.0118731 72.3103987 20.0118731 72.3103987 6.31672092 75.1692763 6.31672092 75.1692763 11.5758263 77.3882691 11.5758263 77.3882691 6.31672092 80.2463692 6.31672092 80.2463692 20.0118731 77.3882691 20.0118731"></polygon>
            <polygon id="Fill-30" fill="#FEFEFE" mask="url(#mask-2)" points="83.9985197 10.5157383 83.9378745 10.5157383 83.9378745 20.0117959 81.4444232 20.0117959 81.4444232 6.31664366 84.7596949 6.31664366 87.5408222 15.7539834 87.5711448 15.7539834 87.5711448 6.31664366 90.0645961 6.31664366 90.0645961 20.0117959 86.7190018 20.0117959"></polygon>
            <path d="M95.4287431,17.6185823 L95.4442931,17.6185823 C96.6439799,17.6185823 97.2232194,15.871728 97.2232194,13.1645288 C97.2232194,10.4959597 96.6439799,8.7112479 95.4442931,8.7112479 C94.2275013,8.7112479 93.6505943,10.4959597 93.6505943,13.1645288 C93.6505943,15.871728 94.2275013,17.6185823 95.4287431,17.6185823 M95.4582882,6.08130893 C97.7698038,6.08130893 100.173065,8.08312205 100.173065,13.1645288 C100.173065,18.2459356 97.7698038,20.2469761 95.4582882,20.2469761 C93.1483275,20.2469761 90.7466215,18.2459356 90.7466215,13.1645288 C90.7466215,8.08312205 93.1483275,6.08130893 95.4582882,6.08130893" id="Fill-31" fill="#FEFEFE" mask="url(#mask-2)"></path>
            <polygon id="Fill-32" fill="#FEFEFE" mask="url(#mask-2)" points="100.854546 6.3169527 103.712646 6.3169527 103.712646 17.2253276 107.208298 17.2253276 107.208298 20.0121049 100.854546 20.0121049"></polygon>
            <path d="M112.056184,17.6185823 L112.071734,17.6185823 C113.272198,17.6185823 113.85066,15.871728 113.85066,13.1645288 C113.85066,10.4959597 113.272198,8.7112479 112.071734,8.7112479 C110.855719,8.7112479 110.278035,10.4959597 110.278035,13.1645288 C110.278035,15.871728 110.855719,17.6185823 112.056184,17.6185823 M112.087284,6.08130893 C114.398022,6.08130893 116.799728,8.08312205 116.799728,13.1645288 C116.799728,18.2459356 114.398022,20.2469761 112.087284,20.2469761 C109.775768,20.2469761 107.374062,18.2459356 107.374062,13.1645288 C107.374062,8.08312205 109.775768,6.08130893 112.087284,6.08130893" id="Fill-33" fill="#FEFEFE" mask="url(#mask-2)"></path>
            <path d="M122.299627,12.0851258 L126.420391,12.0851258 L126.420391,19.4820223 C125.812384,19.8745044 124.56527,20.2468988 123.213192,20.2468988 C119.944571,20.2468988 117.481442,17.8139735 117.481442,13.2424844 C117.481442,9.10365272 119.366109,6.08123167 123.349255,6.08123167 C124.732433,6.08123167 125.659994,6.43585623 126.101615,6.63055206 L125.948447,9.55485259 C125.401863,9.10365272 124.595592,8.78920349 123.622936,8.78920349 C121.418716,8.78920349 120.429733,10.594003 120.429733,13.2625721 C120.429733,15.9311412 121.479361,17.4616667 122.817443,17.4616667 C123.182092,17.4616667 123.516418,17.4021764 123.744227,17.2252504 L123.744227,14.6362593 L122.299627,14.6362593 L122.299627,12.0851258 Z" id="Fill-34" fill="#FEFEFE" mask="url(#mask-2)"></path>
            <polygon id="Fill-35" fill="#FEFEFE" mask="url(#mask-2)" points="129.792965 15.0283551 126.584989 6.31726174 129.838838 6.31726174 131.298988 11.5755945 131.328533 11.5755945 132.712488 6.31726174 135.859041 6.31726174 132.651842 15.0283551 132.651842 20.0116414 129.792965 20.0116414"></polygon>
        </g>
    </g>
</svg>